<svg xmlns="http://www.w3.org/2000/svg" viewBox="2.00001 0.0000231564 11 15">
	<path d="M 8.6967 0.0404 C 8.9086 0.131 9.0311 0.3549 8.9931 0.5822 L 8.0902 6 H 12.4999 C 12.6893 6 12.8625 6.107 12.9472 6.2764 C 13.0318 6.4458 13.0136 6.6485 12.8999 6.8 L 6.9 14.8 C 6.7617 14.9844 6.5152 15.0503 6.3033 14.9596 C 6.0913 14.869 5.9689 14.6451 6.0068 14.4178 L 6.9097 9 H 2.5 C 2.3106 9 2.1375 8.893 2.0528 8.7236 C 1.9681 8.5542 1.9864 8.3515 2.1 8.2 L 8.1 0.2 C 8.2383 0.0156 8.4847 -0.0503 8.6967 0.0404 Z Z" fill="#f6f6f6"/>
</svg>